Coordinates
version=1
nRows=26
nColumns=24
inDegrees=yes

Units are S.I. units (second, meters, Newtons, ...)
Angles are in degrees.

endheader
time	pelvis_tilt	pelvis_list	pelvis_rotation	pelvis_tx	pelvis_ty	pelvis_tz	hip_flexion_r	hip_adduction_r	hip_rotation_r	knee_angle_r	ankle_angle_r	subtalar_angle_r	mtp_angle_r	hip_flexion_l	hip_adduction_l	hip_rotation_l	knee_angle_l	ankle_angle_l	subtalar_angle_l	mtp_angle_l	lumbar_extension	lumbar_bending	lumbar_rotation
      0.01000000	     54.71043007	      3.93699356	     -4.18188046	      1.28683561	      1.04407289	     -0.28732527	     25.78252830	     -4.08449826	      1.56004774	    -13.68558892	    -30.78368862	      0.00000000	      0.00000000	     17.04763012	    -11.44152645	     -4.94684279	    -63.05766918	    -14.47599670	      0.00000000	      0.00000000	      0.00000000	      0.00000000	      0.00000000
      0.02000000	     54.71603645	      3.93831401	     -4.17818477	      1.28685412	      1.04405075	     -0.28733105	     25.78065984	     -4.08562842	      1.55051935	    -13.68737927	    -30.79262682	      0.00000000	      0.00000000	     17.04328733	    -11.44201642	     -4.94078908	    -63.06176789	    -14.46958642	      0.00000000	      0.00000000	      0.00000000	      0.00000000	      0.00000000
      0.03000000	     54.72094675	      3.93839308	     -4.17636787	      1.28686555	      1.04404291	     -0.28733049	     25.77594684	     -4.08784206	      1.54109311	    -13.69095499	    -30.80130847	      0.00000000	      0.00000000	     17.03789496	    -11.44283767	     -4.93552772	    -63.06552488	    -14.46304671	      0.00000000	      0.00000000	      0.00000000	      0.00000000	      0.00000000
      0.04000000	     54.72649653	      3.93667760	     -4.17627288	      1.28686490	      1.04404455	     -0.28732431	     25.76893118	     -4.08938882	      1.53258489	    -13.69556774	    -30.80906097	      0.00000000	      0.00000000	     17.03093074	    -11.44308407	     -4.93212323	    -63.06870313	    -14.45707825	      0.00000000	      0.00000000	      0.00000000	      0.00000000	      0.00000000
      0.05000000	     54.73390833	      3.93318809	     -4.17800791	      1.28685596	      1.04404932	     -0.28731684	     25.76033955	     -4.08919600	      1.52614480	    -13.70019894	    -30.81507311	      0.00000000	      0.00000000	     17.02195410	    -11.44277678	     -4.93095817	    -63.07084134	    -14.45232557	      0.00000000	      0.00000000	      0.00000000	      0.00000000	      0.00000000
      0.06000000	     54.74379177	      3.92852530	     -4.18168605	      1.28684649	      1.04405305	     -0.28731235	     25.75097614	     -4.08729622	      1.52287756	    -13.70367941	    -30.81866514	      0.00000000	      0.00000000	     17.01083453	    -11.44280616	     -4.93154146	    -63.07145731	    -14.44910353	      0.00000000	      0.00000000	      0.00000000	      0.00000000	      0.00000000
      0.07000000	     54.75571084	      3.92345266	     -4.18694926	      1.28683744	      1.04405398	     -0.28731153	     25.74134676	     -4.08435379	      1.52331295	    -13.70498066	    -30.81953408	      0.00000000	      0.00000000	     16.99791703	    -11.44390952	     -4.93311970	    -63.07035552	    -14.44730846	      0.00000000	      0.00000000	      0.00000000	      0.00000000	      0.00000000
      0.08000000	     54.76820758	      3.91861323	     -4.19275605	      1.28682682	      1.04405270	     -0.28731234	     25.73140916	     -4.08105817	      1.52705929	    -13.70359553	    -30.81791440	      0.00000000	      0.00000000	     16.98406628	    -11.44585798	     -4.93528123	    -63.06777205	    -14.44651105	      0.00000000	      0.00000000	      0.00000000	      0.00000000	      0.00000000
      0.09000000	     54.77955743	      3.91442502	     -4.19764200	      1.28681496	      1.04405562	     -0.28731089	     25.72092494	     -4.07797605	      1.53287074	    -13.69971958	    -30.81456712	      0.00000000	      0.00000000	     16.97048323	    -11.44754856	     -4.93797214	    -63.06427465	    -14.44617278	      0.00000000	      0.00000000	      0.00000000	      0.00000000	      0.00000000
      0.10000000	     54.78872891	      3.91116777	     -4.20038669	      1.28680141	      1.04406943	     -0.28730559	     25.71003650	     -4.07575779	      1.53900065	    -13.69416660	    -30.81055483	      0.00000000	      0.00000000	     16.95840224	    -11.44778973	     -4.94102275	    -63.06048040	    -14.44587996	      0.00000000	      0.00000000	      0.00000000	      0.00000000	      0.00000000
      0.11000000	     54.79584139	      3.90910532	     -4.20057656	      1.28678705	      1.04408907	     -0.28730085	     25.69950568	     -4.07521380	      1.54360936	    -13.68809787	    -30.80687918	      0.00000000	      0.00000000	     16.94878555	    -11.44599636	     -4.94379716	    -63.05678595	    -14.44548691	      0.00000000	      0.00000000	      0.00000000	      0.00000000	      0.00000000
      0.12000000	     54.80181261	      3.90836926	     -4.19859601	      1.28677852	      1.04410218	     -0.28730012	     25.69043620	     -4.07704719	      1.54510512	    -13.68267798	    -30.80413500	      0.00000000	      0.00000000	     16.94202817	    -11.44227328	     -4.94541365	    -63.05330371	    -14.44511507	      0.00000000	      0.00000000	      0.00000000	      0.00000000	      0.00000000
      0.13000000	     54.80746378	      3.90882371	     -4.19531252	      1.28677951	      1.04410247	     -0.28730277	     25.68354996	     -4.08142710	      1.54240854	    -13.67883710	    -30.80232983	      0.00000000	      0.00000000	     16.93784501	    -11.43717200	     -4.94528119	    -63.04992572	    -14.44503089	      0.00000000	      0.00000000	      0.00000000	      0.00000000	      0.00000000
      0.14000000	     54.81293770	      3.90999371	     -4.19175568	      1.28678030	      1.04409259	     -0.28730884	     25.67864899	     -4.08777559	      1.53523614	    -13.67713593	    -30.80094981	      0.00000000	      0.00000000	     16.93542577	    -11.43148423	     -4.94346617	    -63.04640776	    -14.44548302	      0.00000000	      0.00000000	      0.00000000	      0.00000000	      0.00000000
      0.15000000	     54.81795683	      3.91106674	     -4.18872066	      1.28677067	      1.04408091	     -0.28731767	     25.67486391	     -4.09492046	      1.52436662	    -13.67761180	    -30.79922029	      0.00000000	      0.00000000	     16.93367462	    -11.42612144	     -4.94066637	    -63.04252132	    -14.44658594	      0.00000000	      0.00000000	      0.00000000	      0.00000000	      0.00000000
      0.16000000	     54.82238415	      3.91123224	     -4.18652208	      1.28675752	      1.04407766	     -0.28732677	     25.67126853	     -4.10137296	      1.51161905	    -13.67973905	    -30.79642226	      0.00000000	      0.00000000	     16.93145305	    -11.42203868	     -4.93785263	    -63.03824181	    -14.44828231	      0.00000000	      0.00000000	      0.00000000	      0.00000000	      0.00000000
      0.17000000	     54.82643269	      3.91004402	     -4.18523719	      1.28675228	      1.04408559	     -0.28733415	     25.66719716	     -4.10561753	      1.49940634	    -13.68267023	    -30.79215642	      0.00000000	      0.00000000	     16.92788362	    -11.42001533	     -4.93588584	    -63.03385870	    -14.45035420	      0.00000000	      0.00000000	      0.00000000	      0.00000000	      0.00000000
      0.18000000	     54.83064882	      3.90740847	     -4.18512353	      1.28675370	      1.04409708	     -0.28733646	     25.66233678	     -4.10653632	      1.49004933	    -13.68559198	    -30.78650426	      0.00000000	      0.00000000	     16.92262084	    -11.42034878	     -4.93531281	    -63.02993181	    -14.45245541	      0.00000000	      0.00000000	      0.00000000	      0.00000000	      0.00000000
      0.19000000	     54.83575056	      3.90353850	     -4.18667169	      1.28675544	      1.04410546	     -0.28733126	     25.65669316	     -4.10382441	      1.48510745	    -13.68803726	    -30.78006752	      0.00000000	      0.00000000	     16.91589989	    -11.42283251	     -4.93628487	    -63.02706719	    -14.45417491	      0.00000000	      0.00000000	      0.00000000	      0.00000000	      0.00000000
      0.20000000	     54.84218632	      3.89894580	     -4.19024245	      1.28675438	      1.04410966	     -0.28732276	     25.65033786	     -4.09808283	      1.48492138	    -13.69012932	    -30.77388823	      0.00000000	      0.00000000	     16.90830963	    -11.42690888	     -4.93862771	    -63.02562991	    -14.45513741	      0.00000000	      0.00000000	      0.00000000	      0.00000000	      0.00000000
      0.21000000	     54.84978599	      3.89417076	     -4.19559354	      1.28674787	      1.04410878	     -0.28731681	     25.64320842	     -4.09055129	      1.48852748	    -13.69261630	    -30.76926384	      0.00000000	      0.00000000	     16.90043891	    -11.43168123	     -4.94204923	    -63.02557554	    -14.45511495	      0.00000000	      0.00000000	      0.00000000	      0.00000000	      0.00000000
      0.22000000	     54.85790338	      3.88955312	     -4.20177403	      1.28673437	      1.04410280	     -0.28731361	     25.63516334	     -4.08270643	      1.49398094	    -13.69663719	    -30.76747518	      0.00000000	      0.00000000	     16.89266234	    -11.43606189	     -4.94618579	    -63.02640842	    -14.45411220	      0.00000000	      0.00000000	      0.00000000	      0.00000000	      0.00000000
      0.23000000	     54.86584338	      3.88542532	     -4.20757532	      1.28671585	      1.04409542	     -0.28731196	     25.62614761	     -4.07593475	      1.49896611	    -13.70333263	    -30.76944982	      0.00000000	      0.00000000	     16.88512206	    -11.43930361	     -4.95038282	    -63.02726271	    -14.45240307	      0.00000000	      0.00000000	      0.00000000	      0.00000000	      0.00000000
      0.24000000	     54.87311192	      3.88229356	     -4.21205676	      1.28669639	      1.04409229	     -0.28731234	     25.61631913	     -4.07130072	      1.50147383	    -13.71342394	    -30.77541852	      0.00000000	      0.00000000	     16.87773920	    -11.44137629	     -4.95363783	    -63.02720920	    -14.45050397	      0.00000000	      0.00000000	      0.00000000	      0.00000000	      0.00000000
      0.25000000	     54.87950801	      3.88057597	     -4.21476440	      1.28668098	      1.04409637	     -0.28731350	     25.60611180	     -4.06934793	      1.50032254	    -13.72686615	    -30.78469122	      0.00000000	      0.00000000	     16.87033109	    -11.44274785	     -4.95497815	    -63.02562898	    -14.44906680	      0.00000000	      0.00000000	      0.00000000	      0.00000000	      0.00000000
      0.26000000	     54.88514126	      3.88021875	     -4.21572911	      1.28667405	      1.04410516	     -0.28731398	     25.59616597	     -4.06997138	      1.49538072	    -13.74273859	    -30.79569501	      0.00000000	      0.00000000	     16.86287079	    -11.44391899	     -4.95394948	    -63.02239803	    -14.44870552	      0.00000000	      0.00000000	      0.00000000	      0.00000000	      0.00000000
